<?xml version="1.0" encoding="UTF-8" standalone="no"?>
<svg
   xmlns:dc="http://purl.org/dc/elements/1.1/"
   xmlns:cc="http://creativecommons.org/ns#"
   xmlns:rdf="http://www.w3.org/1999/02/22-rdf-syntax-ns#"
   xmlns:svg="http://www.w3.org/2000/svg"
   xmlns="http://www.w3.org/2000/svg"
   viewBox="0 0 177.96249 71.849998"
   height="71.849998"
   width="177.96249"
   xml:space="preserve"
   version="1.1"
   id="svg2"><metadata
     id="metadata8"><rdf:RDF><cc:Work
         rdf:about=""><dc:format>image/svg+xml</dc:format><dc:type
           rdf:resource="http://purl.org/dc/dcmitype/StillImage" /></cc:Work></rdf:RDF></metadata><defs
     id="defs6"><clipPath
       id="clipPath18"
       clipPathUnits="userSpaceOnUse"><path
         id="path20"
         d="M 0,574.816 0,0 l 1423.72,0 0,574.816 -1423.72,0 z" /></clipPath></defs><g
     transform="matrix(1.25,0,0,-1.25,0,71.85)"
     id="g10"><g
       transform="scale(0.1,0.1)"
       id="g12"><g
         id="g14"><g
           clip-path="url(#clipPath18)"
           id="g16"><path
             id="path22"
             style="fill:#f1455b;fill-opacity:1;fill-rule:nonzero;stroke:none"
             d="m 126.629,311.5 0,119.352 c 0,10.937 -2.531,18.148 -8.738,24.882 -6.153,6.836 -13.211,9.778 -23.5551,9.778 l -54.3867,0 0,-154.012 -33.55467,0 0,182.453 96.93347,0 c 17.406,0 31.492,-2.914 43.656,-17.117 9.653,-11.469 13.254,-21.293 13.254,-36.223 l 0,-129.113 -33.609,0" /><path
             id="path24"
             style="fill:#f1455b;fill-opacity:1;fill-rule:nonzero;stroke:none"
             d="m 283.539,493.949 c -51.121,0 -79.277,-32.383 -79.277,-91.179 0,-58.86 28.156,-91.274 79.277,-91.274 l 66.488,0 0,26.344 -59.422,0 c -8.476,0 -22.667,0 -33.984,8.637 -9.836,7.703 -12.508,22.796 -13.668,33.484 l -0.281,2.34 -0.852,7.07 108.207,0 0,26.356 -108.089,0 0.718,6.964 0.293,2.817 c 1.168,10.746 3.856,25.84 13.746,33.18 10.735,8.578 24.457,8.578 31.825,8.578 l 1.097,0 0.988,-0.004 59.422,0 0,26.687 -66.488,0" /><path
             id="path26"
             style="fill:#f1455b;fill-opacity:1;fill-rule:nonzero;stroke:none"
             d="m 476.855,311.5 c -2.429,0 -24.074,0.316 -35.339,11.258 -14.352,13.851 -15.461,30.383 -15.461,52.226 l 0,90.528 -31.985,0 0,28.441 31.985,0 0,80.863 33.593,0 0,-80.863 44.563,0 0,-28.441 -44.563,0 0,-76.793 c 0,-20.75 2.829,-32.531 9.465,-39.399 7.438,-8.261 16.207,-9.394 23.789,-9.394 l 11.309,0 0,-28.426 -27.356,0" /><path
             id="path28"
             style="fill:#231f20;fill-opacity:1;fill-rule:nonzero;stroke:none"
             d="m 1203.7,311.5 c -2.43,0 -24.07,0.316 -35.34,11.258 -14.35,13.851 -15.46,30.383 -15.46,52.226 l 0,199.832 33.59,0 0,-186.097 c 0,-20.75 2.83,-32.531 9.47,-39.399 7.43,-8.261 16.21,-9.394 23.79,-9.394 l 11.31,0 0,-28.426 -27.36,0" /><path
             id="path30"
             style="fill:#231f20;fill-opacity:1;fill-rule:nonzero;stroke:none"
             d="m 852.758,311.508 -42.645,66.441 -42.484,-66.441 -40.52,0 64.489,91.273 -64.481,91.164 40.512,0 42.484,-66.453 42.645,66.453 40.43,0 -64.469,-91.164 64.476,-91.273 -40.437,0" /><path
             id="path32"
             style="fill:#231f20;fill-opacity:1;fill-rule:nonzero;stroke:none"
             d="m 970.605,339.918 54.335,0 c 30.56,0 50.3,24.676 50.3,62.859 0,38.114 -19.74,62.739 -50.3,62.739 l -54.335,0 0,-125.598 z m -33.644,-106.223 0,260.246 95.379,0 c 50.9,0 78.93,-32.375 78.93,-91.164 0,-58.855 -28.03,-91.269 -78.93,-91.269 l -61.735,0 0,-77.813 -33.644,0" /><path
             id="path34"
             style="fill:#231f20;fill-opacity:1;fill-rule:nonzero;stroke:none"
             d="m 1335.09,469.422 c -34.61,0 -52.15,-22.426 -52.15,-66.645 0,-44.246 17.54,-66.683 52.15,-66.683 34.63,0 52.19,22.437 52.19,66.683 0,44.219 -17.56,66.645 -52.19,66.645 z m 0,-161.77 c -56.26,0 -88.52,34.672 -88.52,95.125 0,60.34 32.26,94.953 88.52,94.953 56.33,0 88.63,-34.613 88.63,-94.953 0,-60.453 -32.3,-95.125 -88.63,-95.125" /><path
             id="path36"
             style="fill:#231f20;fill-opacity:1;fill-rule:nonzero;stroke:none"
             d="m 621.563,493.949 c -51.141,0 -79.305,-32.383 -79.305,-91.179 0,-58.86 28.164,-91.274 79.305,-91.274 l 66.46,0 0,26.344 -59.433,0 c -8.457,0 -22.613,0 -33.953,8.633 -9.739,7.738 -12.477,22.793 -13.699,33.449 l -0.286,2.379 -0.855,7.07 108.226,0 0,26.356 -108.109,0 0.727,6.968 0.293,2.817 c 1.23,10.754 3.984,25.808 13.73,33.148 10.805,8.606 24.504,8.606 31.863,8.606 l 1.082,0 0.981,-0.004 59.433,0 0,26.687 -66.46,0" /><path
             id="path38"
             style="fill:#f1455b;fill-opacity:1;fill-rule:nonzero;stroke:none"
             d="m 56.25,69.7461 c 5.8594,0 11.4063,1.1211 16.6602,3.3789 5.2461,2.2461 9.7851,5.2813 13.6132,9.1094 3.8282,3.8281 6.8555,8.3633 9.1016,13.6172 2.2578,5.2424 3.3789,10.7964 3.3789,16.6484 0,5.852 -1.1211,11.395 -3.3789,16.648 -2.2461,5.247 -5.2734,9.79 -9.1016,13.618 -3.8281,3.816 -8.3671,6.851 -13.6132,9.109 -5.2539,2.246 -10.8008,3.367 -16.6602,3.367 -5.8398,0 -11.3984,-1.121 -16.6406,-3.367 -5.2539,-2.258 -9.7852,-5.293 -13.6133,-9.109 -3.8281,-3.828 -6.8633,-8.371 -9.1211,-13.618 -2.2461,-5.253 -3.3672,-10.796 -3.3672,-16.648 0,-5.852 1.1211,-11.406 3.3672,-16.6484 2.2578,-5.2539 5.293,-9.7891 9.1211,-13.6172 3.8281,-3.8281 8.3594,-6.8633 13.6133,-9.1094 5.2422,-2.2578 10.8008,-3.3789 16.6406,-3.3789 z m 0,-13.4961 c -7.793,0 -15.1055,1.4648 -21.9336,4.3867 -6.8281,2.9258 -12.793,6.9297 -17.8906,12.0391 C 11.3281,77.7734 7.32422,83.7305 4.39453,90.5586 1.46484,97.3828 0,104.695 0,112.5 c 0,7.793 1.46484,15.105 4.39453,21.934 2.92969,6.828 6.93357,12.785 12.03127,17.89 5.0976,5.098 11.0625,9.114 17.8906,12.031 6.8281,2.93 14.1406,4.395 21.9336,4.395 7.8008,0 15.1172,-1.465 21.9453,-4.395 6.8242,-2.917 12.7813,-6.933 17.8906,-12.031 5.0981,-5.105 9.1091,-11.062 12.0391,-17.89 2.922,-6.829 4.375,-14.141 4.375,-21.934 0,-7.805 -1.453,-15.1172 -4.375,-21.9414 C 105.195,83.7305 101.184,77.7734 96.0859,72.6758 90.9766,67.5664 85.0195,63.5625 78.1953,60.6367 71.3672,57.7148 64.0508,56.25 56.25,56.25" /><path
             id="path40"
             style="fill:#f1455b;fill-opacity:1;fill-rule:nonzero;stroke:none"
             d="m 201.379,69.7461 c 5.848,0 11.394,1.1211 16.648,3.3789 5.254,2.2461 9.786,5.2813 13.614,9.1094 3.828,3.8281 6.867,8.3633 9.113,13.6172 2.254,5.2424 3.379,10.7964 3.379,16.6484 0,5.852 -1.125,11.395 -3.379,16.648 -2.246,5.247 -5.285,9.79 -9.113,13.618 -3.828,3.816 -8.36,6.851 -13.614,9.109 -5.254,2.246 -10.8,3.367 -16.648,3.367 -5.852,0 -11.399,-1.121 -16.652,-3.367 -5.254,-2.258 -9.786,-5.293 -13.614,-9.109 -3.828,-3.828 -6.855,-8.371 -9.109,-13.618 -2.246,-5.253 -3.371,-10.796 -3.371,-16.648 0,-5.852 1.125,-11.406 3.371,-16.6484 2.254,-5.2539 5.281,-9.7891 9.109,-13.6172 3.828,-3.8281 8.36,-6.8633 13.614,-9.1094 5.253,-2.2578 10.8,-3.3789 16.652,-3.3789 z m -42.746,-6.75 c 0,-1.9492 -0.645,-3.5625 -1.914,-4.832 -1.281,-1.2774 -2.891,-1.9141 -4.844,-1.9141 -1.953,0 -3.555,0.6367 -4.836,1.9141 -1.277,1.2695 -1.91,2.8828 -1.91,4.832 l 0,155.2579 c 0,1.941 0.633,3.555 1.91,4.832 1.281,1.269 2.883,1.914 4.836,1.914 1.953,0 3.563,-0.645 4.844,-1.914 1.269,-1.277 1.914,-2.891 1.914,-4.832 l 0,-69.309 c 5.246,6.153 11.543,10.989 18.894,14.512 7.356,3.523 15.305,5.293 23.852,5.293 7.801,0 15.105,-1.465 21.941,-4.395 6.817,-2.917 12.785,-6.933 17.891,-12.031 5.098,-5.105 9.102,-11.062 12.031,-17.89 2.93,-6.829 4.387,-14.141 4.387,-21.934 0,-7.805 -1.457,-15.1172 -4.387,-21.9414 -2.929,-6.8281 -6.933,-12.7852 -12.031,-17.8828 -5.106,-5.1094 -11.074,-9.1133 -17.891,-12.0391 -6.836,-2.9219 -14.14,-4.3867 -21.941,-4.3867 -8.547,0 -16.496,1.7578 -23.852,5.2813 -7.351,3.5273 -13.648,8.2929 -18.894,14.289 l 0,-12.8242" /><path
             id="path42"
             style="fill:#f1455b;fill-opacity:1;fill-rule:nonzero;stroke:none"
             d="m 303.75,56.25 c -1.953,0 -3.562,0.6367 -4.844,1.9141 -1.269,1.2695 -1.914,2.8828 -1.914,4.832 0,1.9453 0.645,3.5664 1.914,4.8359 1.282,1.2774 2.891,1.9141 4.844,1.9141 l 51.746,0 c 4.953,0 9.192,1.7695 12.719,5.293 3.523,3.5156 5.281,7.7539 5.281,12.7031 0,4.9531 -1.758,9.1914 -5.281,12.7188 -3.527,3.523 -7.766,5.293 -12.719,5.293 l -27,0 c -4.355,0 -8.437,0.816 -12.266,2.469 -3.82,1.648 -7.16,3.894 -10,6.75 -2.851,2.847 -5.109,6.187 -6.757,10.007 -1.653,3.829 -2.481,7.911 -2.481,12.266 0,4.348 0.828,8.438 2.481,12.266 1.648,3.828 3.906,7.16 6.757,10.008 2.84,2.851 6.18,5.097 10,6.75 3.829,1.652 7.911,2.48 12.266,2.48 l 38.25,0 c 1.945,0 3.567,-0.645 4.836,-1.914 1.277,-1.277 1.914,-2.891 1.914,-4.832 0,-1.953 -0.637,-3.566 -1.914,-4.848 -1.269,-1.265 -2.891,-1.914 -4.836,-1.914 l -38.25,0 c -4.941,0 -9.18,-1.758 -12.715,-5.281 -3.515,-3.523 -5.285,-7.766 -5.285,-12.715 0,-4.949 1.77,-9.187 5.285,-12.715 3.535,-3.523 7.774,-5.285 12.715,-5.285 l 27,0 c 4.348,0 8.442,-0.828 12.27,-2.469 3.816,-1.66 7.156,-3.906 10.007,-6.757 2.852,-2.852 5.098,-6.18 6.758,-10.008 1.641,-3.8284 2.461,-7.9104 2.461,-12.2698 0,-4.3438 -0.82,-8.4336 -2.461,-12.2539 -1.66,-3.8281 -3.906,-7.168 -6.758,-10.0195 -2.851,-2.8516 -6.191,-5.0977 -10.007,-6.7461 -3.828,-1.6524 -7.922,-2.4727 -12.27,-2.4727 l -51.746,0" /><path
             id="path44"
             style="fill:#f1455b;fill-opacity:1;fill-rule:nonzero;stroke:none"
             d="m 518.176,119.246 c -0.903,5.102 -2.59,9.863 -5.063,14.289 -2.468,4.426 -5.593,8.25 -9.343,11.477 -3.75,3.218 -7.989,5.742 -12.707,7.539 -4.723,1.797 -9.793,2.691 -15.184,2.691 -5.41,0 -10.469,-0.894 -15.195,-2.691 -4.727,-1.797 -8.965,-4.321 -12.715,-7.539 -3.75,-3.227 -6.856,-7.051 -9.336,-11.477 -2.473,-4.426 -4.16,-9.187 -5.059,-14.289 l 84.602,0 z m -84.602,-13.492 c 0.899,-5.109 2.586,-9.8751 5.059,-14.2892 2.48,-4.4335 5.586,-8.25 9.336,-11.4843 3.75,-3.2227 7.988,-5.7344 12.715,-7.5313 4.726,-1.8047 9.785,-2.7031 15.195,-2.7031 5.84,0 11.355,1.1211 16.531,3.3789 5.18,2.2461 9.719,5.3203 13.613,9.2188 1.36,1.2031 2.961,1.8046 4.836,1.8046 1.875,0 3.496,-0.6015 4.844,-1.8046 1.192,-1.3477 1.797,-2.9571 1.797,-4.8321 0,-1.875 -0.605,-3.4883 -1.797,-4.8359 -5.254,-5.1094 -11.25,-9.1133 -18.008,-12.0391 -6.738,-2.9219 -14.023,-4.3867 -21.816,-4.3867 -7.805,0 -15.117,1.4648 -21.934,4.3867 -6.836,2.9258 -12.793,6.9297 -17.89,12.0391 -5.098,5.0976 -9.121,11.0547 -12.039,17.8828 -2.922,6.8242 -4.387,14.1364 -4.387,21.9414 0,7.793 1.465,15.105 4.387,21.934 2.918,6.828 6.941,12.785 12.039,17.89 5.097,5.098 11.054,9.114 17.89,12.031 6.817,2.93 14.129,4.395 21.934,4.395 7.793,0 15.105,-1.465 21.934,-4.395 6.828,-2.917 12.792,-6.933 17.89,-12.031 5.098,-5.105 9.11,-11.062 12.031,-17.89 2.93,-6.829 4.395,-14.141 4.395,-21.934 0,-1.953 -0.645,-3.562 -1.914,-4.844 -1.277,-1.269 -2.891,-1.902 -4.844,-1.902 l -91.797,0" /><path
             id="path46"
             style="fill:#f1455b;fill-opacity:1;fill-rule:nonzero;stroke:none"
             d="m 566.992,162.004 c 0,1.941 0.645,3.555 1.914,4.832 1.282,1.269 2.891,1.914 4.844,1.914 1.953,0 3.555,-0.645 4.844,-1.914 1.269,-1.277 1.902,-2.891 1.902,-4.832 l 0,-13.059 c 5.246,6.153 11.555,10.989 18.899,14.512 7.351,3.523 15.3,5.293 23.847,5.293 1.953,0 3.574,-0.645 4.844,-1.914 1.269,-1.277 1.914,-2.891 1.914,-4.832 0,-1.953 -0.645,-3.566 -1.914,-4.848 -1.27,-1.265 -2.891,-1.914 -4.844,-1.914 -5.84,0 -11.394,-1.121 -16.64,-3.367 -5.254,-2.258 -9.786,-5.293 -13.614,-9.109 -3.828,-3.828 -6.867,-8.371 -9.121,-13.618 -2.246,-5.253 -3.371,-10.796 -3.371,-16.648 l 0,-49.5039 c 0,-1.9492 -0.633,-3.5625 -1.902,-4.832 -1.289,-1.2774 -2.891,-1.9141 -4.844,-1.9141 -1.953,0 -3.562,0.6367 -4.844,1.9141 -1.269,1.2695 -1.914,2.8828 -1.914,4.832 l 0,99.0079" /><path
             id="path48"
             style="fill:#f1455b;fill-opacity:1;fill-rule:nonzero;stroke:none"
             d="M 751.719,109.121 726.973,59.6172 c -1.348,-2.2461 -3.301,-3.3672 -5.852,-3.3672 -1.199,0 -2.32,0.2539 -3.367,0.7813 -1.055,0.5273 -1.875,1.3867 -2.481,2.5859 -2.851,5.7031 -5.437,10.8789 -7.753,15.5273 -2.332,4.6524 -4.961,9.9336 -7.879,15.8633 -2.922,5.9258 -5.969,11.9612 -9.114,18.1132 l -24.746,49.5 c -0.91,1.652 -1.133,3.383 -0.683,5.18 0.449,1.797 1.504,3.14 3.156,4.051 1.648,0.898 3.367,1.125 5.164,0.671 1.809,-0.449 3.164,-1.503 4.062,-3.152 3.145,-6.301 5.958,-11.965 8.438,-16.98 2.473,-5.032 5.281,-10.696 8.437,-16.996 3.145,-6.297 6.329,-12.672 9.551,-19.122 3.235,-6.453 6.348,-12.6714 9.348,-18.6792 2.996,-5.9961 5.625,-11.1719 7.867,-15.5196 2.102,4.3477 4.649,9.5235 7.649,15.5196 3.007,6.0078 6.113,12.2262 9.335,18.6792 3.235,6.45 6.426,12.825 9.571,19.122 3.144,6.3 5.996,11.964 8.554,16.996 2.54,5.015 5.391,10.679 8.543,16.98 0.903,1.649 2.258,2.703 4.055,3.152 1.797,0.454 3.516,0.227 5.176,-0.671 1.641,-0.911 2.695,-2.254 3.144,-4.051 0.45,-1.797 0.223,-3.528 -0.671,-5.18 l -24.758,-49.5" /><path
             id="path50"
             style="fill:#f1455b;fill-opacity:1;fill-rule:nonzero;stroke:none"
             d="m 864.004,69.7461 c 5.84,0 11.394,1.1211 16.641,3.3789 5.253,2.2461 9.793,5.2813 13.613,9.1094 3.828,3.8281 6.875,8.3633 9.121,13.6172 2.246,5.2424 3.379,10.7964 3.379,16.6484 0,5.852 -1.133,11.395 -3.379,16.648 -2.246,5.247 -5.293,9.79 -9.121,13.618 -3.82,3.816 -8.36,6.851 -13.613,9.109 -5.247,2.246 -10.801,3.367 -16.641,3.367 -5.859,0 -11.406,-1.121 -16.66,-3.367 -5.242,-2.258 -9.785,-5.293 -13.606,-9.109 -3.828,-3.828 -6.863,-8.371 -9.109,-13.618 -2.246,-5.253 -3.379,-10.796 -3.379,-16.648 0,-5.852 1.133,-11.406 3.379,-16.6484 2.246,-5.2539 5.281,-9.7891 9.109,-13.6172 3.821,-3.8281 8.364,-6.8633 13.606,-9.1094 5.254,-2.2578 10.801,-3.3789 16.66,-3.3789 z m 56.25,-6.75 c 0,-1.9492 -0.645,-3.5625 -1.914,-4.832 -1.277,-1.2774 -2.891,-1.9141 -4.844,-1.9141 -1.953,0 -3.555,0.6367 -4.836,1.9141 -1.277,1.2695 -1.902,2.8828 -1.902,4.832 l 0,12.8242 C 901.504,69.8242 895.195,65.0586 887.852,61.5313 880.496,58.0078 872.551,56.25 864.004,56.25 c -7.805,0 -15.117,1.4648 -21.934,4.3867 -6.836,2.9258 -12.793,6.9297 -17.89,12.0391 -5.098,5.0976 -9.121,11.0547 -12.039,17.8828 -2.922,6.8242 -4.387,14.1364 -4.387,21.9414 0,7.793 1.465,15.105 4.387,21.934 2.918,6.828 6.941,12.785 12.039,17.89 5.097,5.098 11.054,9.114 17.89,12.031 6.817,2.93 14.129,4.395 21.934,4.395 7.793,0 15.105,-1.465 21.934,-4.395 6.828,-2.917 12.792,-6.933 17.89,-12.031 5.098,-5.105 9.11,-11.062 12.031,-17.89 2.93,-6.829 4.395,-14.141 4.395,-21.934 l 0,-49.5039" /><path
             id="path52"
             style="fill:#f1455b;fill-opacity:1;fill-rule:nonzero;stroke:none"
             d="m 1004.84,168.75 c 1.8,0 3.34,-0.676 4.61,-2.031 1.28,-1.348 1.92,-2.918 1.92,-4.715 0,-1.953 -0.64,-3.566 -1.92,-4.848 -1.27,-1.265 -2.89,-1.914 -4.83,-1.914 l -31.495,0 0,-65.242 c 0,-5.7031 1.941,-10.5078 5.84,-14.4023 3.906,-3.8985 8.711,-5.8516 14.402,-5.8516 2.856,0 5.481,0.5273 7.883,1.5703 2.39,1.0547 4.49,2.4844 6.29,4.2813 1.36,1.3437 2.97,2.0312 4.84,2.0312 1.88,0 3.49,-0.6875 4.85,-2.0312 1.34,-1.3516 2.02,-2.961 2.02,-4.836 0,-1.875 -0.68,-3.4179 -2.02,-4.6094 -3.01,-3.0078 -6.57,-5.3984 -10.7,-7.207 -4.13,-1.7969 -8.51,-2.6953 -13.163,-2.6953 -4.644,0 -9.031,0.8984 -13.152,2.6953 -4.141,1.8086 -7.695,4.1992 -10.695,7.207 -2.997,2.9961 -5.399,6.5508 -7.196,10.6836 -1.797,4.1211 -2.707,8.5079 -2.707,13.1641 l 0,117.227 c 0,1.796 0.676,3.332 2.024,4.609 1.355,1.269 2.929,1.914 4.726,1.914 1.953,0 3.567,-0.645 4.844,-1.914 1.269,-1.277 1.914,-2.891 1.914,-4.832 l 0,-38.254 31.715,0" /><path
             id="path54"
             style="fill:#f1455b;fill-opacity:1;fill-rule:nonzero;stroke:none"
             d="m 1105.87,69.7461 c 5.85,0 11.4,1.1211 16.65,3.3789 5.25,2.2461 9.78,5.2813 13.61,9.1094 3.83,3.8281 6.87,8.3633 9.11,13.6172 2.26,5.2424 3.38,10.7964 3.38,16.6484 0,5.852 -1.12,11.395 -3.38,16.648 -2.24,5.247 -5.28,9.79 -9.11,13.618 -3.83,3.816 -8.36,6.851 -13.61,9.109 -5.25,2.246 -10.8,3.367 -16.65,3.367 -5.85,0 -11.4,-1.121 -16.65,-3.367 -5.26,-2.258 -9.79,-5.293 -13.61,-9.109 -3.83,-3.828 -6.86,-8.371 -9.12,-13.618 -2.24,-5.253 -3.36,-10.796 -3.36,-16.648 0,-5.852 1.12,-11.406 3.36,-16.6484 2.26,-5.2539 5.29,-9.7891 9.12,-13.6172 3.82,-3.8281 8.35,-6.8633 13.61,-9.1094 5.25,-2.2578 10.8,-3.3789 16.65,-3.3789 z m 0,-13.4961 c -7.8,0 -15.11,1.4648 -21.93,4.3867 -6.83,2.9258 -12.8,6.9297 -17.9,12.0391 -5.09,5.0976 -9.11,11.0547 -12.04,17.8828 -2.92,6.8242 -4.38,14.1364 -4.38,21.9414 0,7.793 1.46,15.105 4.38,21.934 2.93,6.828 6.95,12.785 12.04,17.89 5.1,5.098 11.07,9.114 17.9,12.031 6.82,2.93 14.13,4.395 21.93,4.395 7.8,0 15.11,-1.465 21.94,-4.395 6.82,-2.917 12.79,-6.933 17.89,-12.031 5.1,-5.105 9.1,-11.062 12.03,-17.89 2.93,-6.829 4.39,-14.141 4.39,-21.934 0,-7.805 -1.46,-15.1172 -4.39,-21.9414 -2.93,-6.8281 -6.93,-12.7852 -12.03,-17.8828 -5.1,-5.1094 -11.07,-9.1133 -17.89,-12.0391 -6.83,-2.9219 -14.14,-4.3867 -21.94,-4.3867" /><path
             id="path56"
             style="fill:#f1455b;fill-opacity:1;fill-rule:nonzero;stroke:none"
             d="m 1201.49,162.004 c 0,1.941 0.64,3.555 1.92,4.832 1.28,1.269 2.88,1.914 4.83,1.914 1.96,0 3.57,-0.645 4.85,-1.914 1.27,-1.277 1.91,-2.891 1.91,-4.832 l 0,-13.059 c 5.24,6.153 11.54,10.989 18.9,14.512 7.35,3.523 15.3,5.293 23.84,5.293 1.95,0 3.57,-0.645 4.84,-1.914 1.28,-1.277 1.91,-2.891 1.91,-4.832 0,-1.953 -0.63,-3.566 -1.91,-4.848 -1.27,-1.265 -2.89,-1.914 -4.84,-1.914 -5.85,0 -11.39,-1.121 -16.65,-3.367 -5.25,-2.258 -9.78,-5.293 -13.61,-9.109 -3.83,-3.828 -6.85,-8.371 -9.11,-13.618 -2.25,-5.253 -3.37,-10.796 -3.37,-16.648 l 0,-49.5039 c 0,-1.9492 -0.64,-3.5625 -1.91,-4.832 -1.28,-1.2774 -2.89,-1.9141 -4.85,-1.9141 -1.95,0 -3.55,0.6367 -4.83,1.9141 -1.28,1.2695 -1.92,2.8828 -1.92,4.832 l 0,99.0079" /><path
             id="path58"
             style="fill:#f1455b;fill-opacity:1;fill-rule:nonzero;stroke:none"
             d="m 1301.62,159.07 c -0.75,1.653 -0.82,3.379 -0.22,5.176 0.59,1.801 1.73,3.078 3.37,3.828 1.66,0.742 3.37,0.821 5.17,0.227 1.81,-0.606 3.08,-1.731 3.83,-3.379 l 43.88,-94.0548 42.98,93.8278 c 0.74,1.653 1.98,2.817 3.71,3.489 1.71,0.671 3.4,0.632 5.05,-0.11 1.65,-0.75 2.82,-1.988 3.5,-3.719 0.66,-1.718 0.63,-3.41 -0.12,-5.058 L 1355.18,33.0742 c -2.26,-4.9492 -5.11,-9.4531 -8.56,-13.5039 -3.46,-4.043 -7.38,-7.539 -11.82,-10.46092 -4.42,-2.92579 -9.25,-5.17188 -14.51,-6.7461 C 1315.04,0.78125 1309.57,0 1303.87,0 c -1.96,0 -3.56,0.636719 -4.84,1.91406 -1.28,1.26953 -1.91,2.89063 -1.91,4.83203 0,1.95313 0.63,3.56641 1.91,4.83591 1.28,1.2774 2.88,1.9141 4.84,1.9141 8.55,0 16.28,2.2187 23.18,6.6406 6.9,4.4258 12.07,10.2344 15.53,17.4297 l 7.87,17.3359 -48.83,104.1677" /></g></g></g></g></svg>